<svg width="58" height="58" viewBox="0 0 58 58" fill="none" xmlns="http://www.w3.org/2000/svg" class="value-icon" data-v-57de0453=""><path d="M29.0148 58C44.9271 58 58 44.9271 58 29.0148C58 13.0729 44.9271 0 28.9852 0C13.0729 0 0 13.0729 0 29.0148C0 44.9271 13.0729 58 29.0148 58ZM29.0148 55.7522C14.2264 55.7522 2.24783 43.7736 2.24783 29.0148C2.24783 14.256 14.2264 2.24783 28.9852 2.24783C43.7736 2.24783 55.7522 14.256 55.7522 29.0148C55.7522 43.7736 43.7736 55.7522 29.0148 55.7522ZM28.9852 12.3039C30.3457 12.3039 31.4697 11.2096 31.4697 9.84906C31.4697 8.48853 30.3457 7.39419 28.9852 7.39419C27.6543 7.39419 26.5303 8.48853 26.5303 9.84906C26.5303 11.2096 27.6543 12.3039 28.9852 12.3039ZM25.2881 32.1795C27.2402 34.0428 29.6951 33.54 31.4105 31.3809L44.7792 14.5222C45.6073 13.487 44.5426 12.511 43.537 13.2504L26.0571 26.0275C23.8684 27.6247 23.3361 30.257 25.2881 32.1795ZM15.4391 17.9827C16.7996 17.9827 17.8939 16.8587 17.8939 15.4982C17.8939 14.1673 16.7996 13.0433 15.4391 13.0433C14.1081 13.0433 12.9842 14.1673 12.9842 15.4982C12.9842 16.8587 14.1081 17.9827 15.4391 17.9827ZM9.81948 31.4992C11.18 31.4992 12.2743 30.3753 12.2743 29.0444C12.2743 27.6838 11.18 26.5895 9.81948 26.5895C8.48853 26.5895 7.36461 27.6838 7.36461 29.0444C7.36461 30.3753 8.48853 31.4992 9.81948 31.4992ZM48.1805 31.4992C49.5115 31.4992 50.6354 30.3753 50.6354 29.0444C50.6354 27.6838 49.5115 26.5895 48.1805 26.5895C46.82 26.5895 45.6961 27.6838 45.6961 29.0444C45.6961 30.3753 46.82 31.4992 48.1805 31.4992ZM15.4686 45.0454C16.7996 45.0454 17.9235 43.9215 17.9235 42.5609C17.9235 41.23 16.7996 40.1061 15.4686 40.1061C14.1081 40.1061 12.9842 41.23 12.9842 42.5609C12.9842 43.9215 14.1081 45.0454 15.4686 45.0454ZM42.5314 45.0454C43.8919 45.0454 44.9862 43.9215 44.9862 42.5609C44.9862 41.23 43.8919 40.1061 42.5314 40.1061C41.2004 40.1061 40.0765 41.23 40.0765 42.5609C40.0765 43.9215 41.2004 45.0454 42.5314 45.0454Z" fill="url(#paint0_linear)" data-v-57de0453=""></path><defs data-v-57de0453=""><linearGradient id="paint0_linear" x1="-1.20095e-07" y1="0.148871" x2="43.622" y2="67.5285" gradientUnits="userSpaceOnUse" data-v-57de0453=""><stop stop-color="#6D1919" data-v-57de0453=""></stop><stop offset="0.598958" stop-color="#FF6363" data-v-57de0453=""></stop><stop offset="1" stop-color="#FFB7B7" data-v-57de0453=""></stop></linearGradient></defs></svg>