<svg width="63" height="58" viewBox="0 0 63 58" fill="none" xmlns="http://www.w3.org/2000/svg" class="value-icon"
     data-v-57de0453="">
<path d="M10.7851 6.50103H13.0021V1.10847C13.0021 0.479339 12.5227 0 11.8936 0C11.2645 0 10.7851 0.479339 10.7851 1.10847V6.50103ZM20.3719 6.50103H22.5888V1.10847C22.5888 0.479339 22.1095 0 21.4804 0C20.8512 0 20.3719 0.479339 20.3719 1.10847V6.50103ZM29.9587 6.50103H32.1756V1.10847C32.1756 0.479339 31.6963 0 31.0671 0C30.438 0 29.9587 0.479339 29.9587 1.10847V6.50103ZM39.5455 6.50103H41.7624V1.10847C41.7624 0.479339 41.2831 0 40.6539 0C40.0248 0 39.5455 0.479339 39.5455 1.10847V6.50103ZM49.1322 6.50103H51.3492V1.10847C51.3492 0.479339 50.8698 0 50.2407 0C49.5816 0 49.1322 0.479339 49.1322 1.10847V6.50103ZM8.08884 48.8326H54.0455C59.3481 48.8326 62.1343 46.0165 62.1343 40.7738V17.2262C62.1343 12.0134 59.3481 9.16736 54.0455 9.16736H8.08884C2.78616 9.16736 0 11.9535 0 17.2262V40.7738C0 46.0764 2.78616 48.8326 8.08884 48.8326ZM8.14876 46.6157C4.25413 46.6157 2.21694 44.5785 2.21694 40.6539V17.3461C2.21694 13.4215 4.25413 11.4143 8.14876 11.4143H53.9556C57.7304 11.4143 59.8874 13.4215 59.8874 17.3461V40.6539C59.8874 44.5785 57.7304 46.6157 53.9556 46.6157H8.14876ZM10.7851 51.499V56.8915C10.7851 57.5207 11.2645 58 11.8936 58C12.5227 58 13.0021 57.5207 13.0021 56.8915V51.499H10.7851ZM20.3719 51.499V56.8915C20.3719 57.5207 20.8512 58 21.4804 58C22.1095 58 22.5888 57.5207 22.5888 56.8915V51.499H20.3719ZM29.9587 51.499V56.8915C29.9587 57.5207 30.438 58 31.0671 58C31.6963 58 32.1756 57.5207 32.1756 56.8915V51.499H29.9587ZM39.5455 51.499V56.8915C39.5455 57.5207 40.0248 58 40.6539 58C41.2831 58 41.7624 57.5207 41.7624 56.8915V51.499H39.5455ZM49.1322 51.499V56.8915C49.1322 57.5207 49.5816 58 50.2407 58C50.8698 58 51.3492 57.5207 51.3492 56.8915V51.499H49.1322Z"
      fill="url(#paint0_linear)" data-v-57de0453=""></path>
<defs data-v-57de0453="">
    <linearGradient id="paint0_linear" x1="-1.20095e-07" y1="0.148871" x2="43.622" y2="67.5285"
                    gradientUnits="userSpaceOnUse" data-v-57de0453="">
        <stop stop-color="#6D1919" data-v-57de0453=""></stop>
        <stop offset="0.598958" stop-color="#FF6363" data-v-57de0453=""></stop>
        <stop offset="1" stop-color="#FFB7B7" data-v-57de0453=""></stop>
    </linearGradient>
</defs>
</svg>