<svg width="47" height="58" viewBox="0 0 47 58" fill="none" xmlns="http://www.w3.org/2000/svg" class="value-icon"
     data-v-57de0453="">
    <path d="M23.3727 58C23.9979 58 24.7721 57.6725 25.3378 57.345C41.6838 47.4897 46.7454 44.3635 46.7454 34.9251V12.4754C46.7454 9.22998 45.8224 8.12834 42.7854 6.96715C37.6047 4.97228 30.7864 2.26283 25.576 0.476386C24.8018 0.208419 24.117 0 23.3727 0C22.6283 0 21.9435 0.208419 21.1694 0.476386C15.9887 2.35216 9.14066 4.97228 3.95996 6.96715C0.922998 8.09856 0 9.22998 0 12.4754V34.9251C0 44.3635 5.21047 47.2813 21.4076 57.345C21.9733 57.6725 22.7474 58 23.3727 58ZM23.3727 55.6776C22.8665 55.6776 22.2413 55.3203 21.7947 54.9928C7.91992 46.0903 2.20329 43.5893 2.20329 34.6869V12.8922C2.20329 10.7485 2.62012 9.97433 4.1386 9.37885C7.35421 8.09856 18.3706 3.93018 21.616 2.70945C22.3306 2.38193 22.9856 2.23306 23.3727 2.23306C23.7598 2.23306 24.385 2.4117 25.1294 2.70945C28.3747 3.93018 39.3614 8.15811 42.6068 9.37885C44.1253 9.97433 44.5421 10.7485 44.5421 12.8922V34.6869C44.5421 43.5893 38.7659 46.001 24.9507 54.9928C24.5041 55.3203 23.8789 55.6776 23.3727 55.6776ZM12.5051 39.0934C12.5051 41.5051 13.577 42.577 15.7803 42.577H30.9651C33.1684 42.577 34.2402 41.5051 34.2402 39.0934V26.7074C34.2402 24.2957 33.1982 23.2536 31.0544 23.2238V18.9661C31.0544 13.9938 27.9579 10.7187 23.3727 10.7187C18.7875 10.7187 15.691 13.9938 15.691 18.9661V23.2238C13.5472 23.2536 12.5051 24.2957 12.5051 26.7074V39.0934ZM17.537 23.2238V18.9066C17.537 15.0657 19.8891 12.5647 23.3727 12.5647C26.8563 12.5647 29.2084 15.0657 29.2084 18.9066V23.2238H17.537Z"
          fill="url(#paint0_linear)" data-v-57de0453=""></path>
<defs data-v-57de0453=""><linearGradient id="paint0_linear" x1="-1.20095e-07" y1="0.148871" x2="43.622" y2="67.5285" gradientUnits="userSpaceOnUse" data-v-57de0453=""><stop stop-color="#6D1919" data-v-57de0453=""></stop><stop offset="0.598958" stop-color="#FF6363" data-v-57de0453=""></stop><stop offset="1" stop-color="#FFB7B7" data-v-57de0453=""></stop></linearGradient></defs>
</svg>