<svg width="58" height="58" viewBox="0 0 58 58" fill="none" xmlns="http://www.w3.org/2000/svg" class="value-icon"
     data-v-57de0453="">
<path fill-rule="evenodd" clip-rule="evenodd"
      d="M11.3929 2.58929H46.6071C51.4692 2.58929 55.4107 6.53078 55.4107 11.3929V46.6071C55.4107 51.4692 51.4692 55.4107 46.6071 55.4107H11.3929C6.53078 55.4107 2.58929 51.4692 2.58929 46.6071V11.3929C2.58929 6.53078 6.53078 2.58929 11.3929 2.58929ZM0 11.3929C0 5.10076 5.10076 0 11.3929 0H46.6071C52.8992 0 58 5.10076 58 11.3929V46.6071C58 52.8992 52.8992 58 46.6071 58H11.3929C5.10076 58 0 52.8992 0 46.6071V11.3929ZM14.5945 18.7896C15.0854 18.2698 15.9048 18.2464 16.4247 18.7374L25.7461 27.5409C26.005 27.7855 26.1518 28.126 26.1518 28.4821C26.1518 28.8383 26.005 29.1788 25.7461 29.4234L16.4247 38.2269C15.9048 38.7179 15.0854 38.6945 14.5945 38.1747C14.1036 37.6548 14.127 36.8354 14.6468 36.3445L22.9716 28.4821L14.6468 20.6198C14.127 20.1289 14.1036 19.3095 14.5945 18.7896ZM25.8926 37.0268C25.8926 36.3118 26.4722 35.7321 27.1872 35.7321H41.1694C41.8844 35.7321 42.464 36.3118 42.464 37.0268C42.464 37.7418 41.8844 38.3214 41.1694 38.3214H27.1872C26.4722 38.3214 25.8926 37.7418 25.8926 37.0268Z"
      fill="url(#paint0_linear)" data-v-57de0453=""></path>
<defs data-v-57de0453=""><linearGradient id="paint0_linear" x1="-1.20095e-07" y1="0.148871" x2="43.622" y2="67.5285" gradientUnits="userSpaceOnUse" data-v-57de0453=""><stop stop-color="#6D1919" data-v-57de0453=""></stop><stop offset="0.598958" stop-color="#FF6363" data-v-57de0453=""></stop><stop offset="1" stop-color="#FFB7B7" data-v-57de0453=""></stop></linearGradient></defs>
</svg>